# xmcd
#
# Track frame offsets: 
#        183
#        12663
#        30365
#        53923
#        86318
#        101623
#        113220
#        129933
#        146878
#        157738
#        171913
#
# Disc length: 2742 seconds
#
# Revision: 1
# Processed by: cddbd v1.5.1PL0 Copyright (c) Steve Scherf et al.
# Submitted via: ExactAudioCopy v0.95b1
#
DISCID=850ab40b
DTITLE=J. J. Cale - The Troubadour Plays Live
DYEAR=1900
DGENRE=Blues
TTITLE0=Intro
TTITLE1=Call Me The Breeze
TTITLE2=Sensitive Kind
TTITLE3=Same Old Blues
TTITLE4=After Midnight
TTITLE5=Crazy Mama
TTITLE6=Cocaine
TTITLE7=Run Around
TTITLE8=Carry On
TTITLE9=Magnolia
TTITLE10=Travelin' Light
EXTD=
EXTT0=
EXTT1=
EXTT2=
EXTT3=
EXTT4=
EXTT5=
EXTT6=
EXTT7=
EXTT8=
EXTT9=
EXTT10=
PLAYORDER=
